<?xml version="1.0" encoding="utf-8" standalone="no"?>
<!DOCTYPE svg PUBLIC "-//W3C//DTD SVG 1.1//EN"
  "http://www.w3.org/Graphics/SVG/1.1/DTD/svg11.dtd">
<!-- Created with matplotlib (https://matplotlib.org/) -->
<svg height="304.253588pt" version="1.1" viewBox="0 0 321.89538 304.253588" width="321.89538pt" xmlns="http://www.w3.org/2000/svg" xmlns:xlink="http://www.w3.org/1999/xlink">
 <defs>
  <style type="text/css">
*{stroke-linecap:butt;stroke-linejoin:round;}
  </style>
 </defs>
 <g id="figure_1">
  <g id="patch_1">
   <path d="M 0 304.253588 
L 321.89538 304.253588 
L 321.89538 0 
L 0 0 
z
" style="fill:#ffffff;"/>
  </g>
  <g id="axes_1">
   <g id="patch_2">
    <path d="M 33.142728 297.053588 
L 292.918728 297.053588 
L 292.918728 30.941588 
L 33.142728 30.941588 
z
" style="fill:#ffffff;"/>
   </g>
   <g id="patch_3">
    <path d="M 299.254728 163.997588 
L 290.595528 168.432788 
L 293.193288 164.060948 
L 33.142728 164.060948 
L 33.142728 163.934228 
L 293.193288 163.934228 
L 290.595528 159.562388 
z
" style="stroke:#000000;stroke-linejoin:miter;stroke-width:0.5;"/>
   </g>
   <g id="patch_4">
    <path d="M 33.142728 24.605588 
L 37.577928 33.264788 
L 33.206088 30.667028 
L 33.206088 297.053588 
L 33.079368 297.053588 
L 33.079368 30.667028 
L 28.707528 33.264788 
z
" style="stroke:#000000;stroke-linejoin:miter;stroke-width:0.5;"/>
   </g>
   <g id="matplotlib.axis_1">
    <g id="xtick_1">
     <g id="line2d_1">
      <path clip-path="url(#pbe827c73d4)" d="M 58.486728 297.053588 
L 58.486728 30.941588 
" style="fill:none;stroke:#b0b0b0;stroke-dasharray:1.85,0.8;stroke-dashoffset:0;stroke-width:0.5;"/>
     </g>
     <g id="line2d_2">
      <defs>
       <path d="M 0 0 
L 0 3.5 
" id="m610b7e405e" style="stroke:#000000;stroke-width:0.8;"/>
      </defs>
      <g>
       <use style="stroke:#000000;stroke-width:0.8;" x="58.486728" xlink:href="#m610b7e405e" y="163.997588"/>
      </g>
     </g>
     <g id="text_1">
      <!-- $0.2$ -->
      <defs>
       <path d="M 42 31.84375 
C 42 37.96875 41.90625 48.421875 37.703125 56.453125 
C 34 63.484375 28.09375 66 22.90625 66 
C 18.09375 66 12 63.78125 8.203125 56.5625 
C 4.203125 49.015625 3.796875 39.671875 3.796875 31.84375 
C 3.796875 26.109375 3.90625 17.375 7 9.734375 
C 11.296875 -0.609375 19 -2 22.90625 -2 
C 27.5 -2 34.5 -0.109375 38.59375 9.4375 
C 41.59375 16.375 42 24.5 42 31.84375 
z
M 22.90625 -0.40625 
C 16.5 -0.40625 12.703125 5.125 11.296875 12.75 
C 10.203125 18.6875 10.203125 27.328125 10.203125 32.953125 
C 10.203125 40.6875 10.203125 47.109375 11.5 53.234375 
C 13.40625 61.78125 19 64.390625 22.90625 64.390625 
C 27 64.390625 32.296875 61.671875 34.203125 53.4375 
C 35.5 47.71875 35.59375 40.984375 35.59375 32.953125 
C 35.59375 26.421875 35.59375 18.375 34.40625 12.453125 
C 32.296875 1.5 26.40625 -0.40625 22.90625 -0.40625 
z
" id="CMR17-48"/>
       <path d="M 18.40625 4.796875 
C 18.40625 7.6875 16 9.6875 13.59375 9.6875 
C 10.703125 9.6875 8.703125 7.296875 8.703125 4.890625 
C 8.703125 2 11.09375 0 13.5 0 
C 16.40625 0 18.40625 2.390625 18.40625 4.796875 
z
" id="CMMI12-58"/>
       <path d="M 41.703125 15.46875 
L 39.90625 15.46875 
C 38.90625 8.390625 38.09375 7.1875 37.703125 6.59375 
C 37.203125 5.796875 30 5.796875 28.59375 5.796875 
L 9.40625 5.796875 
C 13 9.6875 20 16.765625 28.5 24.9375 
C 34.59375 30.71875 41.703125 37.5 41.703125 47.390625 
C 41.703125 59.1875 32.296875 66 21.796875 66 
C 10.796875 66 4.09375 56.296875 4.09375 47.296875 
C 4.09375 43.390625 7 42.890625 8.203125 42.890625 
C 9.203125 42.890625 12.203125 43.484375 12.203125 46.984375 
C 12.203125 50.09375 9.59375 51 8.203125 51 
C 7.59375 51 7 50.890625 6.59375 50.6875 
C 8.5 59.1875 14.296875 63.390625 20.40625 63.390625 
C 29.09375 63.390625 34.796875 56.5 34.796875 47.390625 
C 34.796875 38.703125 29.703125 31.21875 24 24.734375 
L 4.09375 2.296875 
L 4.09375 0 
L 39.296875 0 
z
" id="CMR17-50"/>
      </defs>
      <g transform="translate(52.599123 177.224238)scale(0.09 -0.09)">
       <use transform="scale(0.996264)" xlink:href="#CMR17-48"/>
       <use transform="translate(45.690477 0)scale(0.996264)" xlink:href="#CMMI12-58"/>
       <use transform="translate(72.787654 0)scale(0.996264)" xlink:href="#CMR17-50"/>
      </g>
     </g>
    </g>
    <g id="xtick_2">
     <g id="line2d_3">
      <path clip-path="url(#pbe827c73d4)" d="M 83.830728 297.053588 
L 83.830728 30.941588 
" style="fill:none;stroke:#b0b0b0;stroke-dasharray:1.85,0.8;stroke-dashoffset:0;stroke-width:0.5;"/>
     </g>
     <g id="line2d_4">
      <g>
       <use style="stroke:#000000;stroke-width:0.8;" x="83.830728" xlink:href="#m610b7e405e" y="163.997588"/>
      </g>
     </g>
     <g id="text_2">
      <!-- $0.4$ -->
      <defs>
       <path d="M 33.59375 64.796875 
C 33.59375 66.890625 33.5 67 31.703125 67 
L 2 19.59375 
L 2 17 
L 27.796875 17 
L 27.796875 7.1875 
C 27.796875 3.59375 27.59375 2.59375 20.59375 2.59375 
L 18.703125 2.59375 
L 18.703125 0 
C 21.90625 0.1875 27.296875 0.1875 30.703125 0.1875 
C 34.09375 0.1875 39.5 0.1875 42.703125 0 
L 42.703125 2.59375 
L 40.796875 2.59375 
C 33.796875 2.59375 33.59375 3.59375 33.59375 7.1875 
L 33.59375 17 
L 43.796875 17 
L 43.796875 19.59375 
L 33.59375 19.59375 
z
M 28.09375 58.171875 
L 28.09375 19.59375 
L 4 19.59375 
z
" id="CMR17-52"/>
      </defs>
      <g transform="translate(77.943123 177.224238)scale(0.09 -0.09)">
       <use transform="scale(0.996264)" xlink:href="#CMR17-48"/>
       <use transform="translate(45.690477 0)scale(0.996264)" xlink:href="#CMMI12-58"/>
       <use transform="translate(72.787654 0)scale(0.996264)" xlink:href="#CMR17-52"/>
      </g>
     </g>
    </g>
    <g id="xtick_3">
     <g id="line2d_5">
      <path clip-path="url(#pbe827c73d4)" d="M 109.174728 297.053588 
L 109.174728 30.941588 
" style="fill:none;stroke:#b0b0b0;stroke-dasharray:1.85,0.8;stroke-dashoffset:0;stroke-width:0.5;"/>
     </g>
     <g id="line2d_6">
      <g>
       <use style="stroke:#000000;stroke-width:0.8;" x="109.174728" xlink:href="#m610b7e405e" y="163.997588"/>
      </g>
     </g>
     <g id="text_3">
      <!-- $0.6$ -->
      <defs>
       <path d="M 10.59375 34.34375 
C 10.59375 58 21.796875 63.6875 28.296875 63.6875 
C 30.40625 63.6875 35.5 63.265625 37.5 59.09375 
C 35.90625 59.09375 32.90625 59.09375 32.90625 55.59375 
C 32.90625 52.890625 35.09375 52 36.5 52 
C 37.40625 52 40.09375 52.390625 40.09375 55.796875 
C 40.09375 62.296875 35.09375 66 28.203125 66 
C 16.296875 66 3.796875 53.296875 3.796875 31.421875 
C 3.796875 4.015625 15.09375 -2 23.09375 -2 
C 32.796875 -2 42 6.734375 42 20.234375 
C 42 32.828125 33.90625 42 23.703125 42 
C 17.59375 42 13.09375 37.96875 10.59375 30.921875 
z
M 23.09375 0.390625 
C 10.796875 0.390625 10.796875 18.9375 10.796875 22.65625 
C 10.796875 29.90625 14.203125 40.390625 23.5 40.390625 
C 25.203125 40.390625 30.09375 40.390625 33.40625 33.4375 
C 35.203125 29.515625 35.203125 25.375 35.203125 20.34375 
C 35.203125 14.90625 35.203125 10.875 33.09375 6.84375 
C 30.90625 2.703125 27.703125 0.390625 23.09375 0.390625 
z
" id="CMR17-54"/>
      </defs>
      <g transform="translate(103.287123 177.224238)scale(0.09 -0.09)">
       <use transform="scale(0.996264)" xlink:href="#CMR17-48"/>
       <use transform="translate(45.690477 0)scale(0.996264)" xlink:href="#CMMI12-58"/>
       <use transform="translate(72.787654 0)scale(0.996264)" xlink:href="#CMR17-54"/>
      </g>
     </g>
    </g>
    <g id="xtick_4">
     <g id="line2d_7">
      <path clip-path="url(#pbe827c73d4)" d="M 134.518728 297.053588 
L 134.518728 30.941588 
" style="fill:none;stroke:#b0b0b0;stroke-dasharray:1.85,0.8;stroke-dashoffset:0;stroke-width:0.5;"/>
     </g>
     <g id="line2d_8">
      <g>
       <use style="stroke:#000000;stroke-width:0.8;" x="134.518728" xlink:href="#m610b7e405e" y="163.997588"/>
      </g>
     </g>
     <g id="text_4">
      <!-- $0.8$ -->
      <defs>
       <path d="M 27.203125 35.765625 
C 33.5 38.96875 39.90625 43.796875 39.90625 51.53125 
C 39.90625 60.6875 31.09375 66 23 66 
C 13.90625 66 5.90625 59.375 5.90625 50.234375 
C 5.90625 47.71875 6.5 43.390625 10.40625 39.578125 
C 11.40625 38.578125 15.59375 35.5625 18.296875 33.65625 
C 13.796875 31.34375 3.296875 25.8125 3.296875 14.765625 
C 3.296875 4.40625 13.09375 -2 22.796875 -2 
C 33.5 -2 42.5 5.71875 42.5 15.96875 
C 42.5 25.109375 36.40625 29.328125 32.40625 32.046875 
z
M 14.09375 44.609375 
C 13.296875 45.109375 9.296875 48.21875 9.296875 52.9375 
C 9.296875 59.078125 15.59375 63.6875 22.796875 63.6875 
C 30.703125 63.6875 36.5 58.0625 36.5 51.53125 
C 36.5 42.1875 26.09375 36.859375 25.59375 36.859375 
C 25.5 36.859375 25.40625 36.859375 24.59375 37.46875 
z
M 32.5 24 
C 34 22.90625 38.796875 19.578125 38.796875 13.453125 
C 38.796875 6.015625 31.40625 0.390625 23 0.390625 
C 13.90625 0.390625 7 6.921875 7 14.859375 
C 7 22.796875 13.09375 29.4375 20 32.546875 
z
" id="CMR17-56"/>
      </defs>
      <g transform="translate(128.631123 177.224238)scale(0.09 -0.09)">
       <use transform="scale(0.996264)" xlink:href="#CMR17-48"/>
       <use transform="translate(45.690477 0)scale(0.996264)" xlink:href="#CMMI12-58"/>
       <use transform="translate(72.787654 0)scale(0.996264)" xlink:href="#CMR17-56"/>
      </g>
     </g>
    </g>
    <g id="xtick_5">
     <g id="line2d_9">
      <path clip-path="url(#pbe827c73d4)" d="M 159.862728 297.053588 
L 159.862728 30.941588 
" style="fill:none;stroke:#b0b0b0;stroke-dasharray:1.85,0.8;stroke-dashoffset:0;stroke-width:0.5;"/>
     </g>
     <g id="line2d_10">
      <g>
       <use style="stroke:#000000;stroke-width:0.8;" x="159.862728" xlink:href="#m610b7e405e" y="163.997588"/>
      </g>
     </g>
     <g id="text_5">
      <!-- $1.0$ -->
      <defs>
       <path d="M 26.59375 63.796875 
C 26.59375 65.890625 26.5 66 25.09375 66 
C 21.203125 61.359375 15.296875 59.890625 9.703125 59.6875 
C 9.40625 59.6875 8.90625 59.6875 8.796875 59.5 
C 8.703125 59.296875 8.703125 59.09375 8.703125 57 
C 11.796875 57 17 57.59375 21 59.984375 
L 21 7.296875 
C 21 3.796875 20.796875 2.59375 12.203125 2.59375 
L 9.203125 2.59375 
L 9.203125 0 
C 14 0.09375 19 0.1875 23.796875 0.1875 
C 28.59375 0.1875 33.59375 0.09375 38.40625 0 
L 38.40625 2.59375 
L 35.40625 2.59375 
C 26.796875 2.59375 26.59375 3.6875 26.59375 7.296875 
z
" id="CMR17-49"/>
      </defs>
      <g transform="translate(153.975123 177.224238)scale(0.09 -0.09)">
       <use transform="scale(0.996264)" xlink:href="#CMR17-49"/>
       <use transform="translate(45.690477 0)scale(0.996264)" xlink:href="#CMMI12-58"/>
       <use transform="translate(72.787654 0)scale(0.996264)" xlink:href="#CMR17-48"/>
      </g>
     </g>
    </g>
    <g id="xtick_6">
     <g id="line2d_11">
      <path clip-path="url(#pbe827c73d4)" d="M 185.206728 297.053588 
L 185.206728 30.941588 
" style="fill:none;stroke:#b0b0b0;stroke-dasharray:1.85,0.8;stroke-dashoffset:0;stroke-width:0.5;"/>
     </g>
     <g id="line2d_12">
      <g>
       <use style="stroke:#000000;stroke-width:0.8;" x="185.206728" xlink:href="#m610b7e405e" y="163.997588"/>
      </g>
     </g>
     <g id="text_6">
      <!-- $1.2$ -->
      <g transform="translate(179.319123 177.224238)scale(0.09 -0.09)">
       <use transform="scale(0.996264)" xlink:href="#CMR17-49"/>
       <use transform="translate(45.690477 0)scale(0.996264)" xlink:href="#CMMI12-58"/>
       <use transform="translate(72.787654 0)scale(0.996264)" xlink:href="#CMR17-50"/>
      </g>
     </g>
    </g>
    <g id="xtick_7">
     <g id="line2d_13">
      <path clip-path="url(#pbe827c73d4)" d="M 210.550728 297.053588 
L 210.550728 30.941588 
" style="fill:none;stroke:#b0b0b0;stroke-dasharray:1.85,0.8;stroke-dashoffset:0;stroke-width:0.5;"/>
     </g>
     <g id="line2d_14">
      <g>
       <use style="stroke:#000000;stroke-width:0.8;" x="210.550728" xlink:href="#m610b7e405e" y="163.997588"/>
      </g>
     </g>
     <g id="text_7">
      <!-- $1.4$ -->
      <g transform="translate(204.663123 177.224238)scale(0.09 -0.09)">
       <use transform="scale(0.996264)" xlink:href="#CMR17-49"/>
       <use transform="translate(45.690477 0)scale(0.996264)" xlink:href="#CMMI12-58"/>
       <use transform="translate(72.787654 0)scale(0.996264)" xlink:href="#CMR17-52"/>
      </g>
     </g>
    </g>
    <g id="xtick_8">
     <g id="line2d_15">
      <path clip-path="url(#pbe827c73d4)" d="M 235.894728 297.053588 
L 235.894728 30.941588 
" style="fill:none;stroke:#b0b0b0;stroke-dasharray:1.85,0.8;stroke-dashoffset:0;stroke-width:0.5;"/>
     </g>
     <g id="line2d_16">
      <g>
       <use style="stroke:#000000;stroke-width:0.8;" x="235.894728" xlink:href="#m610b7e405e" y="163.997588"/>
      </g>
     </g>
     <g id="text_8">
      <!-- $1.6$ -->
      <g transform="translate(230.007123 177.224238)scale(0.09 -0.09)">
       <use transform="scale(0.996264)" xlink:href="#CMR17-49"/>
       <use transform="translate(45.690477 0)scale(0.996264)" xlink:href="#CMMI12-58"/>
       <use transform="translate(72.787654 0)scale(0.996264)" xlink:href="#CMR17-54"/>
      </g>
     </g>
    </g>
    <g id="xtick_9">
     <g id="line2d_17">
      <path clip-path="url(#pbe827c73d4)" d="M 261.238728 297.053588 
L 261.238728 30.941588 
" style="fill:none;stroke:#b0b0b0;stroke-dasharray:1.85,0.8;stroke-dashoffset:0;stroke-width:0.5;"/>
     </g>
     <g id="line2d_18">
      <g>
       <use style="stroke:#000000;stroke-width:0.8;" x="261.238728" xlink:href="#m610b7e405e" y="163.997588"/>
      </g>
     </g>
     <g id="text_9">
      <!-- $1.8$ -->
      <g transform="translate(255.351123 177.224238)scale(0.09 -0.09)">
       <use transform="scale(0.996264)" xlink:href="#CMR17-49"/>
       <use transform="translate(45.690477 0)scale(0.996264)" xlink:href="#CMMI12-58"/>
       <use transform="translate(72.787654 0)scale(0.996264)" xlink:href="#CMR17-56"/>
      </g>
     </g>
    </g>
    <g id="xtick_10">
     <g id="line2d_19">
      <path clip-path="url(#pbe827c73d4)" d="M 286.582728 297.053588 
L 286.582728 30.941588 
" style="fill:none;stroke:#b0b0b0;stroke-dasharray:1.85,0.8;stroke-dashoffset:0;stroke-width:0.5;"/>
     </g>
     <g id="line2d_20">
      <g>
       <use style="stroke:#000000;stroke-width:0.8;" x="286.582728" xlink:href="#m610b7e405e" y="163.997588"/>
      </g>
     </g>
     <g id="text_10">
      <!-- $2.0$ -->
      <g transform="translate(280.695123 177.224238)scale(0.09 -0.09)">
       <use transform="scale(0.996264)" xlink:href="#CMR17-50"/>
       <use transform="translate(45.690477 0)scale(0.996264)" xlink:href="#CMMI12-58"/>
       <use transform="translate(72.787654 0)scale(0.996264)" xlink:href="#CMR17-48"/>
      </g>
     </g>
    </g>
   </g>
   <g id="matplotlib.axis_2">
    <g id="ytick_1">
     <g id="line2d_21">
      <path clip-path="url(#pbe827c73d4)" d="M 33.142728 290.717588 
L 292.918728 290.717588 
" style="fill:none;stroke:#b0b0b0;stroke-dasharray:1.85,0.8;stroke-dashoffset:0;stroke-width:0.5;"/>
     </g>
     <g id="line2d_22">
      <defs>
       <path d="M 0 0 
L -3.5 0 
" id="m517642bdf6" style="stroke:#000000;stroke-width:0.8;"/>
      </defs>
      <g>
       <use style="stroke:#000000;stroke-width:0.8;" x="33.142728" xlink:href="#m517642bdf6" y="290.717588"/>
      </g>
     </g>
     <g id="text_11">
      <!-- $-1.0$ -->
      <defs>
       <path d="M 65.90625 23 
C 67.59375 23 69.40625 23 69.40625 25 
C 69.40625 27 67.59375 27 65.90625 27 
L 11.796875 27 
C 10.09375 27 8.296875 27 8.296875 25 
C 8.296875 23 10.09375 23 11.796875 23 
z
" id="CMSY10-0"/>
      </defs>
      <g transform="translate(7.2 293.830913)scale(0.09 -0.09)">
       <use transform="scale(0.996264)" xlink:href="#CMSY10-0"/>
       <use transform="translate(77.487468 0)scale(0.996264)" xlink:href="#CMR17-49"/>
       <use transform="translate(123.177945 0)scale(0.996264)" xlink:href="#CMMI12-58"/>
       <use transform="translate(150.275122 0)scale(0.996264)" xlink:href="#CMR17-48"/>
      </g>
     </g>
    </g>
    <g id="ytick_2">
     <g id="line2d_23">
      <path clip-path="url(#pbe827c73d4)" d="M 33.142728 265.373588 
L 292.918728 265.373588 
" style="fill:none;stroke:#b0b0b0;stroke-dasharray:1.85,0.8;stroke-dashoffset:0;stroke-width:0.5;"/>
     </g>
     <g id="line2d_24">
      <g>
       <use style="stroke:#000000;stroke-width:0.8;" x="33.142728" xlink:href="#m517642bdf6" y="265.373588"/>
      </g>
     </g>
     <g id="text_12">
      <!-- $-0.8$ -->
      <g transform="translate(7.2 268.486913)scale(0.09 -0.09)">
       <use transform="scale(0.996264)" xlink:href="#CMSY10-0"/>
       <use transform="translate(77.487468 0)scale(0.996264)" xlink:href="#CMR17-48"/>
       <use transform="translate(123.177945 0)scale(0.996264)" xlink:href="#CMMI12-58"/>
       <use transform="translate(150.275122 0)scale(0.996264)" xlink:href="#CMR17-56"/>
      </g>
     </g>
    </g>
    <g id="ytick_3">
     <g id="line2d_25">
      <path clip-path="url(#pbe827c73d4)" d="M 33.142728 240.029588 
L 292.918728 240.029588 
" style="fill:none;stroke:#b0b0b0;stroke-dasharray:1.85,0.8;stroke-dashoffset:0;stroke-width:0.5;"/>
     </g>
     <g id="line2d_26">
      <g>
       <use style="stroke:#000000;stroke-width:0.8;" x="33.142728" xlink:href="#m517642bdf6" y="240.029588"/>
      </g>
     </g>
     <g id="text_13">
      <!-- $-0.6$ -->
      <g transform="translate(7.2 243.142913)scale(0.09 -0.09)">
       <use transform="scale(0.996264)" xlink:href="#CMSY10-0"/>
       <use transform="translate(77.487468 0)scale(0.996264)" xlink:href="#CMR17-48"/>
       <use transform="translate(123.177945 0)scale(0.996264)" xlink:href="#CMMI12-58"/>
       <use transform="translate(150.275122 0)scale(0.996264)" xlink:href="#CMR17-54"/>
      </g>
     </g>
    </g>
    <g id="ytick_4">
     <g id="line2d_27">
      <path clip-path="url(#pbe827c73d4)" d="M 33.142728 214.685588 
L 292.918728 214.685588 
" style="fill:none;stroke:#b0b0b0;stroke-dasharray:1.85,0.8;stroke-dashoffset:0;stroke-width:0.5;"/>
     </g>
     <g id="line2d_28">
      <g>
       <use style="stroke:#000000;stroke-width:0.8;" x="33.142728" xlink:href="#m517642bdf6" y="214.685588"/>
      </g>
     </g>
     <g id="text_14">
      <!-- $-0.4$ -->
      <g transform="translate(7.2 217.798913)scale(0.09 -0.09)">
       <use transform="scale(0.996264)" xlink:href="#CMSY10-0"/>
       <use transform="translate(77.487468 0)scale(0.996264)" xlink:href="#CMR17-48"/>
       <use transform="translate(123.177945 0)scale(0.996264)" xlink:href="#CMMI12-58"/>
       <use transform="translate(150.275122 0)scale(0.996264)" xlink:href="#CMR17-52"/>
      </g>
     </g>
    </g>
    <g id="ytick_5">
     <g id="line2d_29">
      <path clip-path="url(#pbe827c73d4)" d="M 33.142728 189.341588 
L 292.918728 189.341588 
" style="fill:none;stroke:#b0b0b0;stroke-dasharray:1.85,0.8;stroke-dashoffset:0;stroke-width:0.5;"/>
     </g>
     <g id="line2d_30">
      <g>
       <use style="stroke:#000000;stroke-width:0.8;" x="33.142728" xlink:href="#m517642bdf6" y="189.341588"/>
      </g>
     </g>
     <g id="text_15">
      <!-- $-0.2$ -->
      <g transform="translate(7.2 192.454913)scale(0.09 -0.09)">
       <use transform="scale(0.996264)" xlink:href="#CMSY10-0"/>
       <use transform="translate(77.487468 0)scale(0.996264)" xlink:href="#CMR17-48"/>
       <use transform="translate(123.177945 0)scale(0.996264)" xlink:href="#CMMI12-58"/>
       <use transform="translate(150.275122 0)scale(0.996264)" xlink:href="#CMR17-50"/>
      </g>
     </g>
    </g>
    <g id="ytick_6">
     <g id="line2d_31">
      <path clip-path="url(#pbe827c73d4)" d="M 33.142728 163.997588 
L 292.918728 163.997588 
" style="fill:none;stroke:#b0b0b0;stroke-dasharray:1.85,0.8;stroke-dashoffset:0;stroke-width:0.5;"/>
     </g>
     <g id="line2d_32">
      <g>
       <use style="stroke:#000000;stroke-width:0.8;" x="33.142728" xlink:href="#m517642bdf6" y="163.997588"/>
      </g>
     </g>
     <g id="text_16">
      <!-- $0.0$ -->
      <g transform="translate(14.367519 167.110913)scale(0.09 -0.09)">
       <use transform="scale(0.996264)" xlink:href="#CMR17-48"/>
       <use transform="translate(45.690477 0)scale(0.996264)" xlink:href="#CMMI12-58"/>
       <use transform="translate(72.787654 0)scale(0.996264)" xlink:href="#CMR17-48"/>
      </g>
     </g>
    </g>
    <g id="ytick_7">
     <g id="line2d_33">
      <path clip-path="url(#pbe827c73d4)" d="M 33.142728 138.653588 
L 292.918728 138.653588 
" style="fill:none;stroke:#b0b0b0;stroke-dasharray:1.85,0.8;stroke-dashoffset:0;stroke-width:0.5;"/>
     </g>
     <g id="line2d_34">
      <g>
       <use style="stroke:#000000;stroke-width:0.8;" x="33.142728" xlink:href="#m517642bdf6" y="138.653588"/>
      </g>
     </g>
     <g id="text_17">
      <!-- $0.2$ -->
      <g transform="translate(14.367519 141.766913)scale(0.09 -0.09)">
       <use transform="scale(0.996264)" xlink:href="#CMR17-48"/>
       <use transform="translate(45.690477 0)scale(0.996264)" xlink:href="#CMMI12-58"/>
       <use transform="translate(72.787654 0)scale(0.996264)" xlink:href="#CMR17-50"/>
      </g>
     </g>
    </g>
    <g id="ytick_8">
     <g id="line2d_35">
      <path clip-path="url(#pbe827c73d4)" d="M 33.142728 113.309588 
L 292.918728 113.309588 
" style="fill:none;stroke:#b0b0b0;stroke-dasharray:1.85,0.8;stroke-dashoffset:0;stroke-width:0.5;"/>
     </g>
     <g id="line2d_36">
      <g>
       <use style="stroke:#000000;stroke-width:0.8;" x="33.142728" xlink:href="#m517642bdf6" y="113.309588"/>
      </g>
     </g>
     <g id="text_18">
      <!-- $0.4$ -->
      <g transform="translate(14.367519 116.422913)scale(0.09 -0.09)">
       <use transform="scale(0.996264)" xlink:href="#CMR17-48"/>
       <use transform="translate(45.690477 0)scale(0.996264)" xlink:href="#CMMI12-58"/>
       <use transform="translate(72.787654 0)scale(0.996264)" xlink:href="#CMR17-52"/>
      </g>
     </g>
    </g>
    <g id="ytick_9">
     <g id="line2d_37">
      <path clip-path="url(#pbe827c73d4)" d="M 33.142728 87.965588 
L 292.918728 87.965588 
" style="fill:none;stroke:#b0b0b0;stroke-dasharray:1.85,0.8;stroke-dashoffset:0;stroke-width:0.5;"/>
     </g>
     <g id="line2d_38">
      <g>
       <use style="stroke:#000000;stroke-width:0.8;" x="33.142728" xlink:href="#m517642bdf6" y="87.965588"/>
      </g>
     </g>
     <g id="text_19">
      <!-- $0.6$ -->
      <g transform="translate(14.367519 91.078913)scale(0.09 -0.09)">
       <use transform="scale(0.996264)" xlink:href="#CMR17-48"/>
       <use transform="translate(45.690477 0)scale(0.996264)" xlink:href="#CMMI12-58"/>
       <use transform="translate(72.787654 0)scale(0.996264)" xlink:href="#CMR17-54"/>
      </g>
     </g>
    </g>
    <g id="ytick_10">
     <g id="line2d_39">
      <path clip-path="url(#pbe827c73d4)" d="M 33.142728 62.621588 
L 292.918728 62.621588 
" style="fill:none;stroke:#b0b0b0;stroke-dasharray:1.85,0.8;stroke-dashoffset:0;stroke-width:0.5;"/>
     </g>
     <g id="line2d_40">
      <g>
       <use style="stroke:#000000;stroke-width:0.8;" x="33.142728" xlink:href="#m517642bdf6" y="62.621588"/>
      </g>
     </g>
     <g id="text_20">
      <!-- $0.8$ -->
      <g transform="translate(14.367519 65.734913)scale(0.09 -0.09)">
       <use transform="scale(0.996264)" xlink:href="#CMR17-48"/>
       <use transform="translate(45.690477 0)scale(0.996264)" xlink:href="#CMMI12-58"/>
       <use transform="translate(72.787654 0)scale(0.996264)" xlink:href="#CMR17-56"/>
      </g>
     </g>
    </g>
    <g id="ytick_11">
     <g id="line2d_41">
      <path clip-path="url(#pbe827c73d4)" d="M 33.142728 37.277588 
L 292.918728 37.277588 
" style="fill:none;stroke:#b0b0b0;stroke-dasharray:1.85,0.8;stroke-dashoffset:0;stroke-width:0.5;"/>
     </g>
     <g id="line2d_42">
      <g>
       <use style="stroke:#000000;stroke-width:0.8;" x="33.142728" xlink:href="#m517642bdf6" y="37.277588"/>
      </g>
     </g>
     <g id="text_21">
      <!-- $1.0$ -->
      <g transform="translate(14.367519 40.390913)scale(0.09 -0.09)">
       <use transform="scale(0.996264)" xlink:href="#CMR17-49"/>
       <use transform="translate(45.690477 0)scale(0.996264)" xlink:href="#CMMI12-58"/>
       <use transform="translate(72.787654 0)scale(0.996264)" xlink:href="#CMR17-48"/>
      </g>
     </g>
    </g>
   </g>
   <g id="line2d_43">
    <path clip-path="url(#pbe827c73d4)" d="M 34.409928 289.450388 
L 322.89538 0.964937 
L 322.89538 0.964937 
" style="fill:none;stroke:#1f77b4;stroke-linecap:square;stroke-width:0.6;"/>
   </g>
   <g id="line2d_44">
    <path clip-path="url(#pbe827c73d4)" d="M 34.409928 227.351252 
L 39.478728 227.199188 
L 44.547528 226.844372 
L 49.616328 226.286804 
L 54.685128 225.526484 
L 59.753928 224.563412 
L 64.822728 223.397588 
L 69.891528 222.029012 
L 74.960328 220.457684 
L 80.029128 218.683604 
L 85.097928 216.706772 
L 90.166728 214.527188 
L 95.235528 212.144852 
L 100.304328 209.559764 
L 105.373128 206.771924 
L 111.709128 203.002004 
L 118.045128 198.915284 
L 124.381128 194.511764 
L 130.717128 189.791444 
L 137.053128 184.754324 
L 143.389128 179.400404 
L 149.725128 173.729684 
L 156.061128 167.742164 
L 162.397128 161.437844 
L 168.733128 154.816724 
L 175.069128 147.878804 
L 181.405128 140.624084 
L 187.741128 133.052564 
L 194.077128 125.164244 
L 200.413128 116.959124 
L 206.749128 108.437204 
L 213.085128 99.598484 
L 220.688328 88.573844 
L 228.291528 77.093012 
L 235.894728 65.155988 
L 243.497928 52.762772 
L 251.101128 39.913364 
L 258.704328 26.607764 
L 266.307528 12.845972 
L 273.714416 -1 
L 273.714416 -1 
" style="fill:none;stroke:#ff7f0e;stroke-linecap:square;stroke-width:0.6;"/>
   </g>
   <g id="line2d_45">
    <path clip-path="url(#pbe827c73d4)" d="M 103.665762 305.253588 
L 105.373128 295.651439 
L 107.907528 282.65425 
L 110.441928 270.914396 
L 112.976328 260.274776 
L 115.510728 250.602085 
L 118.045128 241.782609 
L 120.579528 233.718874 
L 123.113928 226.326936 
L 125.648328 219.534192 
L 128.182728 213.277588 
L 130.717128 207.502152 
L 133.251528 202.15978 
L 135.785928 197.208233 
L 138.320328 192.610298 
L 140.854728 188.33309 
L 144.656328 182.45577 
L 148.457928 177.150087 
L 152.259528 172.344243 
L 156.061128 167.977369 
L 159.862728 163.997588 
L 163.664328 160.360465 
L 167.465928 157.027763 
L 171.267528 153.966433 
L 175.069128 151.147792 
L 178.870728 148.546851 
L 183.939528 145.380191 
L 189.008328 142.517422 
L 194.077128 139.920867 
L 199.145928 137.558514 
L 204.214728 135.40302 
L 210.550728 132.964119 
L 216.886728 130.773141 
L 223.222728 128.797588 
L 230.825928 126.673091 
L 238.429128 124.780249 
L 247.299528 122.821685 
L 256.169928 121.092134 
L 266.307528 119.352144 
L 277.712328 117.647441 
L 289.117128 116.165478 
L 301.789128 114.735132 
L 315.728328 113.378645 
L 322.89538 112.756296 
L 322.89538 112.756296 
" style="fill:none;stroke:#2ca02c;stroke-linecap:square;stroke-width:0.6;"/>
   </g>
   <g id="line2d_46">
    <path clip-path="url(#pbe827c73d4)" d="M 74.711309 305.253588 
L 77.494728 297.031048 
L 81.296328 286.609836 
L 85.097928 276.980902 
L 88.899528 268.032244 
L 92.701128 259.67405 
L 96.502728 251.833199 
L 100.304328 244.449363 
L 104.105928 237.472188 
L 107.907528 230.859209 
L 112.976328 222.546722 
L 118.045128 214.746106 
L 123.113928 207.39796 
L 128.182728 200.452661 
L 133.251528 193.868322 
L 138.320328 187.609272 
L 143.389128 181.644877 
L 149.725128 174.563706 
L 156.061128 167.857379 
L 162.397128 161.488199 
L 168.733128 155.423884 
L 175.069128 149.636577 
L 182.672328 143.023599 
L 190.275528 136.738674 
L 197.878728 130.750789 
L 205.481928 125.033127 
L 213.085128 119.56235 
L 221.955528 113.464678 
L 230.825928 107.647001 
L 239.696328 102.084729 
L 249.833928 96.013148 
L 259.971528 90.219225 
L 270.109128 84.67867 
L 280.246728 79.37025 
L 291.651528 73.652589 
L 303.056328 68.181811 
L 315.728328 62.367947 
L 322.89538 59.194377 
L 322.89538 59.194377 
" style="fill:none;stroke:#d62728;stroke-linecap:square;stroke-width:0.6;"/>
   </g>
   <g id="patch_5">
    <path d="M 33.142728 297.053588 
L 33.142728 30.941588 
" style="fill:none;stroke:#000000;stroke-linecap:square;stroke-linejoin:miter;stroke-width:0.8;"/>
   </g>
   <g id="patch_6">
    <path d="M 292.918728 297.053588 
L 292.918728 30.941588 
" style="fill:none;"/>
   </g>
   <g id="patch_7">
    <path d="M 33.142728 163.997588 
L 292.918728 163.997588 
" style="fill:none;stroke:#000000;stroke-linecap:square;stroke-linejoin:miter;stroke-width:0.8;"/>
   </g>
   <g id="patch_8">
    <path d="M 33.142728 30.941588 
L 292.918728 30.941588 
" style="fill:none;"/>
   </g>
   <g id="text_22">
    <!-- $\lambda$ -->
    <defs>
     <path d="M 30.90625 61.921875 
C 28.40625 69 20.5 69 19.203125 69 
C 18.59375 69 17.5 69 17.5 67.984375 
C 17.5 67.1875 18.09375 67.09375 18.59375 66.984375 
C 20.09375 66.796875 21.296875 66.59375 22.90625 63.71875 
C 23.90625 61.828125 34.203125 32.109375 34.203125 31.90625 
C 34.203125 31.8125 34.09375 31.703125 33.296875 30.90625 
L 7.296875 4.765625 
C 6.09375 3.578125 5.296875 2.78125 5.296875 1.484375 
C 5.296875 0.09375 6.5 -1.109375 8.09375 -1.109375 
C 8.5 -1.109375 9.59375 -0.90625 10.203125 -0.3125 
C 11.796875 1.1875 26.09375 18.59375 35.203125 29.328125 
C 37.796875 21.5625 41 12.421875 44.09375 4.078125 
C 44.59375 2.578125 45.09375 1.1875 46.5 -0.109375 
C 47.5 -1 47.703125 -1 50.5 -1 
L 52.40625 -1 
C 52.796875 -1 53.5 -1 53.5 -0.203125 
C 53.5 0.1875 53.40625 0.296875 53 0.6875 
C 52.09375 1.78125 51.40625 3.578125 51 4.765625 
z
" id="CMMI12-21"/>
    </defs>
    <g transform="translate(305.590728 169.066388)scale(0.16 -0.16)">
     <use transform="scale(0.996264)" xlink:href="#CMMI12-21"/>
    </g>
   </g>
   <g id="text_23">
    <!-- $\varepsilon$ -->
    <defs>
     <path d="M 13.90625 22.296875 
C 17.09375 21 20.5 21 22.40625 21 
C 25 21 30.203125 21 30.203125 24.28125 
C 30.203125 26.296875 28.296875 27 23.203125 27 
C 20.703125 27 17.703125 26.6875 14.203125 25.1875 
C 11.09375 26.6875 9.90625 28.953125 9.90625 31.109375 
C 9.90625 37.171875 19.703125 40.6875 28.59375 40.6875 
C 30.296875 40.6875 33.90625 40.6875 38.09375 37.65625 
C 38.703125 37.265625 39 36.96875 39.703125 36.96875 
C 40.90625 36.96875 42.203125 38.25 42.203125 39.421875 
C 42.203125 41.1875 36.40625 45 29.5 45 
C 18.296875 45 7.703125 38.34375 7.703125 31.109375 
C 7.703125 27.484375 10.09375 25.1875 11.796875 23.5625 
C 6 20.125 2.59375 14.890625 2.59375 10.140625 
C 2.59375 3.453125 8.796875 -2 18.40625 -2 
C 31.59375 -2 36.90625 6.65625 36.90625 8.015625 
C 36.90625 8.5 36.5 8.875 36 8.875 
C 35.5 8.875 35.296875 8.59375 34.90625 8.015625 
C 33.796875 6.171875 31.203125 2.296875 19.296875 2.296875 
C 13.09375 2.296875 4.90625 3.84375 4.90625 10.71875 
C 4.90625 14.015625 7.40625 18.953125 13.90625 22.296875 
z
M 17 23.703125 
C 19.703125 24.984375 22.296875 24.984375 23 24.984375 
C 25.796875 24.984375 26.296875 24.703125 27.90625 24.140625 
C 26.203125 23 26 23 22.40625 23 
C 20.59375 23 19 23 17 23.703125 
z
" id="CMMI12-34"/>
    </defs>
    <g transform="translate(30.608328 18.269588)scale(0.16 -0.16)">
     <use transform="scale(0.996264)" xlink:href="#CMMI12-34"/>
    </g>
   </g>
   <g id="legend_1">
    <g id="patch_9">
     <path d="M 40.142728 94.690302 
L 175.588349 94.690302 
Q 177.588349 94.690302 177.588349 92.690302 
L 177.588349 37.941588 
Q 177.588349 35.941588 175.588349 35.941588 
L 40.142728 35.941588 
Q 38.142728 35.941588 38.142728 37.941588 
L 38.142728 92.690302 
Q 38.142728 94.690302 40.142728 94.690302 
z
" style="fill:#ffffff;opacity:0.8;stroke:#cccccc;stroke-linejoin:miter;"/>
    </g>
    <g id="line2d_47">
     <path d="M 42.142728 43.441588 
L 62.142728 43.441588 
" style="fill:none;stroke:#1f77b4;stroke-linecap:square;stroke-width:0.6;"/>
    </g>
    <g id="line2d_48"/>
    <g id="text_24">
     <!-- Extensão de engenharia -->
     <defs>
      <path d="M 60.703125 25.21875 
L 58.90625 25.21875 
C 56.703125 10.5625 55.40625 2.59375 37.796875 2.59375 
L 23.90625 2.59375 
C 19.90625 2.59375 19.703125 3.09375 19.703125 6.484375 
L 19.703125 34 
L 29.09375 34 
C 38.5 34 39.40625 30.609375 39.40625 22.328125 
L 41.203125 22.328125 
L 41.203125 48.21875 
L 39.40625 48.21875 
C 39.40625 39.96875 38.5 36.59375 29.09375 36.59375 
L 19.703125 36.59375 
L 19.703125 61.3125 
C 19.703125 64.703125 19.90625 65.1875 23.90625 65.1875 
L 37.59375 65.1875 
C 53.09375 65.1875 54.90625 59.03125 56.296875 45.828125 
L 58.09375 45.828125 
L 55.703125 67.796875 
L 5.09375 67.796875 
L 5.09375 65.1875 
C 12 65.1875 13.09375 65.1875 13.09375 60.71875 
L 13.09375 7.078125 
C 13.09375 2.59375 12 2.59375 5.09375 2.59375 
L 5.09375 0 
L 57.09375 0 
z
" id="CMR17-69"/>
      <path d="M 26 23.296875 
C 29 27.1875 32.40625 31.59375 35.203125 34.890625 
C 38.5 38.6875 42.296875 40.296875 46.703125 40.390625 
L 46.703125 43 
C 45 42.890625 41.5 42.796875 39.703125 42.796875 
C 37 42.796875 33.90625 42.796875 31.59375 43 
L 31.59375 40.390625 
C 33 40.1875 33.796875 39.1875 33.796875 37.796875 
C 33.796875 36 32.796875 34.890625 32.296875 34.1875 
L 24.90625 24.796875 
L 16.09375 36.296875 
C 15.203125 37.390625 15.203125 37.59375 15.203125 38.09375 
C 15.203125 39.296875 16.203125 40.296875 17.90625 40.390625 
L 17.90625 43 
C 15.5 42.796875 11.203125 42.796875 8.703125 42.796875 
C 6 42.796875 2.796875 42.796875 0.59375 43 
L 0.59375 40.390625 
C 6 40.390625 7.203125 40 9.59375 37 
L 21.09375 22.09375 
C 21.296875 21.890625 21.796875 21.296875 21.796875 21 
C 21.796875 20.59375 13.09375 9.890625 12 8.5 
C 7.5 3.09375 2.796875 2.6875 0.09375 2.59375 
L 0.09375 0 
C 1.796875 0.09375 5.296875 0.1875 7.09375 0.1875 
C 9.09375 0.1875 13.5 0.1875 15.296875 0 
L 15.296875 2.59375 
C 14.703125 2.6875 13.09375 2.890625 13.09375 5.1875 
C 13.09375 7 13.90625 8.09375 14.796875 9.296875 
L 23.09375 19.5 
L 31.796875 8.1875 
C 32.59375 7.09375 33.796875 5.59375 33.796875 4.890625 
C 33.796875 3.5 32.59375 2.6875 31 2.59375 
L 31 0 
C 33.40625 0.1875 37.703125 0.1875 40.203125 0.1875 
C 42.90625 0.1875 46.09375 0.1875 48.296875 0 
L 48.296875 2.59375 
C 43.296875 2.59375 41.796875 2.796875 39.40625 5.890625 
z
" id="CMR17-120"/>
      <path d="M 15.09375 40.390625 
L 29.09375 40.390625 
L 29.09375 43 
L 15.09375 43 
L 15.09375 62 
L 13.296875 62 
C 13.09375 51.4375 9.59375 42.1875 1.09375 41.984375 
L 1.09375 40.390625 
L 9.796875 40.390625 
L 9.796875 12.15625 
C 9.796875 10.234375 9.796875 -1 21.40625 -1 
C 27.296875 -1 30.703125 4.8125 30.703125 12.25 
L 30.703125 17.984375 
L 28.90625 17.984375 
L 28.90625 12.34375 
C 28.90625 5.421875 26.203125 0.796875 22 0.796875 
C 19.09375 0.796875 15.09375 2.796875 15.09375 11.953125 
z
" id="CMR17-116"/>
      <path d="M 38.09375 23.484375 
C 38.5 23.890625 38.5 24.09375 38.5 25.09375 
C 38.5 35.171875 33.09375 44 21.703125 44 
C 11.09375 44 2.703125 33.984375 2.703125 21.78125 
C 2.703125 8.65625 12.203125 -1 22.796875 -1 
C 34 -1 38.40625 9.671875 38.40625 11.796875 
C 38.40625 12.5 37.796875 12.5 37.59375 12.5 
C 36.90625 12.5 36.796875 12.296875 36.40625 11.078125 
C 34.203125 4.21875 28.703125 0.796875 23.5 0.796875 
C 19.203125 0.796875 14.90625 3.21875 12.203125 7.65625 
C 9.09375 12.796875 9.09375 18.75 9.09375 23.484375 
z
M 9.203125 25 
C 9.90625 39.234375 17.59375 42.390625 21.59375 42.390625 
C 28.40625 42.390625 33 36.0625 33.09375 25 
z
" id="CMR17-101"/>
      <path d="M 41.5 30.53125 
C 41.5 35.65625 40.5 44 28.703125 44 
C 20.796875 44 16.703125 37.875 15.203125 33.84375 
L 15.09375 33.84375 
L 15.09375 44 
L 3.296875 42.890625 
L 3.296875 40.28125 
C 9.203125 40.28125 10.09375 39.6875 10.09375 34.859375 
L 10.09375 6.921875 
C 10.09375 3.09375 9.703125 2.59375 3.296875 2.59375 
L 3.296875 0 
C 5.703125 0.1875 10.09375 0.1875 12.703125 0.1875 
C 15.296875 0.1875 19.796875 0.1875 22.203125 0 
L 22.203125 2.59375 
C 15.796875 2.59375 15.40625 3 15.40625 6.921875 
L 15.40625 26.21875 
C 15.40625 35.453125 21 42.390625 28 42.390625 
C 35.40625 42.390625 36.203125 35.765625 36.203125 30.9375 
L 36.203125 6.921875 
C 36.203125 3.09375 35.796875 2.59375 29.40625 2.59375 
L 29.40625 0 
C 31.796875 0.1875 36.203125 0.1875 38.796875 0.1875 
C 41.40625 0.1875 45.90625 0.1875 48.296875 0 
L 48.296875 2.59375 
C 41.90625 2.59375 41.5 3 41.5 6.921875 
z
" id="CMR17-110"/>
      <path d="M 30.90625 42 
C 30.90625 43.796875 30.796875 43.890625 30.203125 43.890625 
C 29.796875 43.890625 29.703125 43.796875 28.5 42.296875 
C 28.203125 41.890625 27.296875 40.890625 27 40.5 
C 23.796875 43.890625 19.296875 44 17.59375 44 
C 6.5 44 2.5 38.1875 2.5 32.390625 
C 2.5 23.390625 12.703125 21.296875 15.59375 20.6875 
C 21.90625 19.390625 24.09375 19 26.203125 17.1875 
C 27.5 16 29.703125 13.796875 29.703125 10.1875 
C 29.703125 6 27.296875 0.59375 18.09375 0.59375 
C 9.40625 0.59375 6.296875 7.1875 4.5 16 
C 4.203125 17.390625 4.203125 17.5 3.40625 17.5 
C 2.59375 17.5 2.5 17.390625 2.5 15.390625 
L 2.5 1 
C 2.5 -0.8125 2.59375 -0.90625 3.203125 -0.90625 
C 3.703125 -0.90625 3.796875 -0.8125 4.296875 0 
C 4.90625 0.890625 6.40625 3.296875 7 4.296875 
C 9 1.59375 12.5 -1 18.09375 -1 
C 28 -1 33.296875 4.390625 33.296875 12.1875 
C 33.296875 17.296875 30.59375 20 29.296875 21.1875 
C 26.296875 24.296875 22.796875 25 18.59375 25.796875 
C 13.09375 27 6.09375 28.390625 6.09375 34.5 
C 6.09375 37.09375 7.5 42.59375 17.59375 42.59375 
C 28.296875 42.59375 28.90625 32.59375 29.09375 29.390625 
C 29.203125 28.890625 29.703125 28.796875 30 28.796875 
C 30.90625 28.796875 30.90625 29.09375 30.90625 30.796875 
z
" id="CMR17-115"/>
      <path d="M 37.5 65.59375 
C 34.09375 62.296875 32.203125 60.390625 29.09375 60.390625 
C 26.90625 60.390625 25.40625 61.5 23.296875 63 
C 21.296875 64.390625 19.703125 65.59375 17.5 65.59375 
C 13.90625 65.59375 11.40625 62.6875 7.203125 58.09375 
L 8.296875 57 
C 11.703125 60.296875 13.59375 62.1875 16.703125 62.1875 
C 18.90625 62.1875 20.40625 61.09375 22.5 59.59375 
C 24.5 58.1875 26.09375 57 28.296875 57 
C 31.90625 57 34.40625 59.890625 38.59375 64.5 
z
" id="CMR17-126"/>
      <path d="M 36 25.875 
C 36 32 36 35.546875 31.796875 39.59375 
C 28.09375 42.984375 23.796875 44 20.40625 44 
C 12.5 44 6.796875 37.625 6.796875 30.890625 
C 6.796875 27.1875 9.796875 27 10.40625 27 
C 11.703125 27 14 27.796875 14 30.59375 
C 14 33.09375 12.09375 34.1875 10.40625 34.1875 
C 10 34.1875 9.5 34.09375 9.203125 34 
C 11.296875 40.53125 16.703125 42.390625 20.203125 42.390625 
C 25.203125 42.390625 30.703125 37.828125 30.703125 29.296875 
L 30.703125 25.5 
C 24.796875 25.296875 17.703125 24.5 12.09375 21.453125 
C 5.796875 17.921875 4 12.84375 4 9 
C 4 1.203125 13 -1 18.296875 -1 
C 23.796875 -1 28.90625 2.109375 31.09375 7.890625 
C 31.296875 3.421875 34.09375 -0.609375 38.5 -0.609375 
C 40.59375 -0.609375 45.90625 0.796875 45.90625 8.796875 
L 45.90625 14.46875 
L 44.09375 14.46875 
L 44.09375 8.703125 
C 44.09375 2.515625 41.40625 1.703125 40.09375 1.703125 
C 36 1.703125 36 6.96875 36 11.4375 
z
M 30.703125 13.859375 
C 30.703125 5.046875 24.5 0.59375 19 0.59375 
C 14 0.59375 10.09375 4.34375 10.09375 9 
C 10.09375 12.046875 11.40625 17.40625 17.203125 20.65625 
C 22 23.390625 27.5 23.796875 30.703125 24 
z
" id="CMR17-97"/>
      <path d="M 43.09375 21.1875 
C 43.09375 34 33.796875 44 22.90625 44 
C 12 44 2.703125 34 2.703125 21.1875 
C 2.703125 8.59375 12 -1 22.90625 -1 
C 33.796875 -1 43.09375 8.59375 43.09375 21.1875 
z
M 22.90625 0.796875 
C 18.203125 0.796875 14.203125 3.59375 11.90625 7.5 
C 9.40625 12 9.09375 17.59375 9.09375 22 
C 9.09375 26.1875 9.296875 31.390625 11.90625 35.890625 
C 13.90625 39.1875 17.796875 42.390625 22.90625 42.390625 
C 27.40625 42.390625 31.203125 39.890625 33.59375 36.390625 
C 36.703125 31.6875 36.703125 25.09375 36.703125 22 
C 36.703125 18.09375 36.5 12.09375 33.796875 7.296875 
C 31 2.6875 26.703125 0.796875 22.90625 0.796875 
z
" id="CMR17-111"/>
      <path d="M 29.203125 67.890625 
L 29.203125 65.296875 
C 35.09375 65.296875 36 64.703125 36 60.046875 
L 36 37.046875 
C 35.59375 37.546875 31.5 44 23.40625 44 
C 13.203125 44 3.296875 34.8125 3.296875 21.5 
C 3.296875 8.265625 12.59375 -1 22.40625 -1 
C 30.90625 -1 35.296875 5.640625 35.796875 6.34375 
L 35.796875 -1 
L 47.90625 -0.203125 
L 47.90625 2.40625 
C 42 2.40625 41.09375 3.015625 41.09375 7.859375 
L 41.09375 69 
z
M 35.796875 11.90625 
C 35.796875 8.875 34 6.140625 31.703125 4.125 
C 28.296875 1.09375 24.90625 0.59375 23 0.59375 
C 20.09375 0.59375 9.703125 2.109375 9.703125 21.390625 
C 9.703125 41.1875 21.296875 42.390625 23.90625 42.390625 
C 28.5 42.390625 32.203125 39.765625 34.5 36.140625 
C 35.796875 34.015625 35.796875 33.703125 35.796875 31.890625 
z
" id="CMR17-100"/>
      <path d="M 11.09375 18.203125 
C 13 16.6875 16.296875 15 20.296875 15 
C 28.203125 15 35 21.234375 35 29.609375 
C 35 32.234375 34.203125 36.265625 31.203125 39.390625 
C 34 42.390625 38.09375 43.390625 40.40625 43.390625 
C 40.796875 43.390625 41.40625 43.390625 41.90625 43.09375 
C 41.5 42.984375 40.59375 42.59375 40.59375 40.984375 
C 40.59375 39.6875 41.5 38.796875 42.796875 38.796875 
C 44.296875 38.796875 45.09375 39.796875 45.09375 41.09375 
C 45.09375 42.984375 43.59375 45 40.40625 45 
C 36.40625 45 32.90625 43.09375 30.09375 40.484375 
C 27.09375 43.1875 23.5 44.1875 20.296875 44.1875 
C 12.40625 44.1875 5.59375 37.984375 5.59375 29.609375 
C 5.59375 23.859375 8.90625 20.21875 9.90625 19.21875 
C 6.90625 15.6875 6.90625 11.59375 6.90625 11.09375 
C 6.90625 8.5 7.90625 4.6875 11.296875 2.59375 
C 6.09375 1.28125 2 -2.875 2 -8.078125 
C 2 -15.5625 11.5 -21 22.90625 -21 
C 33.90625 -21 43.796875 -15.765625 43.796875 -7.96875 
C 43.796875 6 29 6 21.296875 6 
C 19 6 14.90625 6 14.40625 6.09375 
C 11.296875 6.59375 9.203125 9.390625 9.203125 12.890625 
C 9.203125 13.796875 9.203125 16 11.09375 18.203125 
z
M 20.296875 16.6875 
C 11.5 16.6875 11.5 27.59375 11.5 29.609375 
C 11.5 31.625 11.5 42.484375 20.296875 42.484375 
C 29.09375 42.484375 29.09375 31.625 29.09375 29.609375 
C 29.09375 27.59375 29.09375 16.6875 20.296875 16.6875 
z
M 22.90625 -19.3125 
C 12.90625 -19.3125 6 -13.796875 6 -8.078125 
C 6 -4.859375 7.703125 -1.84375 9.90625 -0.171875 
C 12.40625 1.59375 13.40625 1.59375 20.203125 1.59375 
C 28.40625 1.59375 39.796875 1.59375 39.796875 -8.078125 
C 39.796875 -13.796875 32.90625 -19.3125 22.90625 -19.3125 
z
" id="CMR17-103"/>
      <path d="M 41.5 30.53125 
C 41.5 35.65625 40.5 44 28.703125 44 
C 20.5 44 16.5 37.375 15.296875 34.046875 
L 15.203125 34.046875 
L 15.203125 69 
L 3.296875 67.890625 
L 3.296875 65.296875 
C 9.203125 65.296875 10.09375 64.703125 10.09375 60.046875 
L 10.09375 6.921875 
C 10.09375 3.09375 9.703125 2.59375 3.296875 2.59375 
L 3.296875 0 
C 5.703125 0.1875 10.09375 0.1875 12.703125 0.1875 
C 15.296875 0.1875 19.796875 0.1875 22.203125 0 
L 22.203125 2.59375 
C 15.796875 2.59375 15.40625 3 15.40625 6.921875 
L 15.40625 26.21875 
C 15.40625 35.453125 21 42.390625 28 42.390625 
C 35.40625 42.390625 36.203125 35.765625 36.203125 30.9375 
L 36.203125 6.921875 
C 36.203125 3.09375 35.796875 2.59375 29.40625 2.59375 
L 29.40625 0 
C 31.796875 0.1875 36.203125 0.1875 38.796875 0.1875 
C 41.40625 0.1875 45.90625 0.1875 48.296875 0 
L 48.296875 2.59375 
C 41.90625 2.59375 41.5 3 41.5 6.921875 
z
" id="CMR17-104"/>
      <path d="M 15 23.703125 
C 15 33.34375 19.09375 42.390625 26.59375 42.390625 
C 27.296875 42.390625 28 42.296875 28.703125 41.984375 
C 28.703125 41.984375 26.5 41.28125 26.5 38.671875 
C 26.5 36.265625 28.40625 35.265625 29.90625 35.265625 
C 31.09375 35.265625 33.296875 35.96875 33.296875 38.78125 
C 33.296875 41.984375 30.09375 44 26.703125 44 
C 19.09375 44 15.796875 36.5625 14.796875 33.046875 
L 14.703125 33.046875 
L 14.703125 44 
L 3.09375 42.890625 
L 3.09375 40.28125 
C 9 40.28125 9.90625 39.6875 9.90625 34.859375 
L 9.90625 6.921875 
C 9.90625 3.09375 9.5 2.59375 3.09375 2.59375 
L 3.09375 0 
C 5.5 0.1875 10.09375 0.1875 12.703125 0.1875 
C 15.59375 0.1875 20.703125 0.1875 23.40625 0 
L 23.40625 2.59375 
C 16.203125 2.59375 15 2.59375 15 7.109375 
z
" id="CMR17-114"/>
      <path d="M 15.5 61.890625 
C 15.5 64.09375 13.703125 66 11.40625 66 
C 9.203125 66 7.296875 64.1875 7.296875 61.890625 
C 7.296875 59.6875 9.09375 57.796875 11.40625 57.796875 
C 13.59375 57.796875 15.5 59.59375 15.5 61.890625 
z
M 3.796875 42.890625 
L 3.796875 40.296875 
C 9.40625 40.296875 10.203125 39.6875 10.203125 34.859375 
L 10.203125 6.921875 
C 10.203125 3.09375 9.796875 2.59375 3.40625 2.59375 
L 3.40625 0 
C 5.796875 0.1875 10.09375 0.1875 12.59375 0.1875 
C 15 0.1875 19.09375 0.1875 21.40625 0 
L 21.40625 2.59375 
C 15.5 2.59375 15.296875 3.203125 15.296875 6.8125 
L 15.296875 44 
z
" id="CMR17-105"/>
     </defs>
     <g transform="translate(70.142728 46.941588)scale(0.1 -0.1)">
      <use transform="scale(0.996264)" xlink:href="#CMR17-69"/>
      <use transform="translate(62.586301 0)scale(0.996264)" xlink:href="#CMR17-120"/>
      <use transform="translate(110.879216 0)scale(0.996264)" xlink:href="#CMR17-116"/>
      <use transform="translate(146.159984 0)scale(0.996264)" xlink:href="#CMR17-101"/>
      <use transform="translate(186.645645 0)scale(0.996264)" xlink:href="#CMR17-110"/>
      <use transform="translate(237.541014 0)scale(0.996264)" xlink:href="#CMR17-115"/>
      <use transform="translate(273.342352 0)scale(0.996264)" xlink:href="#CMR17-126"/>
      <use transform="translate(273.342352 0)scale(0.996264)" xlink:href="#CMR17-97"/>
      <use transform="translate(319.032829 0)scale(0.996264)" xlink:href="#CMR17-111"/>
      <use transform="translate(394.799273 0)scale(0.996264)" xlink:href="#CMR17-100"/>
      <use transform="translate(445.694642 0)scale(0.996264)" xlink:href="#CMR17-101"/>
      <use transform="translate(516.256269 0)scale(0.996264)" xlink:href="#CMR17-101"/>
      <use transform="translate(556.74193 0)scale(0.996264)" xlink:href="#CMR17-110"/>
      <use transform="translate(607.637299 0)scale(0.996264)" xlink:href="#CMR17-103"/>
      <use transform="translate(653.327777 0)scale(0.996264)" xlink:href="#CMR17-101"/>
      <use transform="translate(693.813437 0)scale(0.996264)" xlink:href="#CMR17-110"/>
      <use transform="translate(744.708807 0)scale(0.996264)" xlink:href="#CMR17-104"/>
      <use transform="translate(795.604177 0)scale(0.996264)" xlink:href="#CMR17-97"/>
      <use transform="translate(841.294654 0)scale(0.996264)" xlink:href="#CMR17-114"/>
      <use transform="translate(876.575422 0)scale(0.996264)" xlink:href="#CMR17-105"/>
      <use transform="translate(901.44648 0)scale(0.996264)" xlink:href="#CMR17-97"/>
     </g>
    </g>
    <g id="line2d_49">
     <path d="M 42.142728 57.378767 
L 62.142728 57.378767 
" style="fill:none;stroke:#ff7f0e;stroke-linecap:square;stroke-width:0.6;"/>
    </g>
    <g id="line2d_50"/>
    <g id="text_25">
     <!-- Extensão de Green -->
     <defs>
      <path d="M 62.09375 19.65625 
C 62.09375 23.484375 62.40625 24 68.59375 24 
L 68.59375 26.59375 
C 66.203125 26.390625 60.796875 26.390625 58.09375 26.390625 
C 55.296875 26.390625 47.5 26.5 43.703125 26.59375 
L 43.703125 24 
L 46.703125 24 
C 55.296875 24 55.5 22.875 55.5 19.25 
L 55.5 12.59375 
C 55.5 1.5 42.5 0.59375 39.40625 0.59375 
C 29.09375 0.59375 12.203125 7.75 12.203125 34.046875 
C 12.203125 60.34375 28.796875 67.390625 38.5 67.390625 
C 49.796875 67.390625 58 57.515625 59.90625 43.515625 
C 60.09375 42.3125 60.09375 42.109375 61 42.109375 
C 62.09375 42.109375 62.09375 42.3125 62.09375 44.125 
L 62.09375 67.984375 
C 62.09375 69.796875 62 69.890625 61.40625 69.890625 
C 61 69.890625 60.90625 69.796875 60.203125 68.59375 
L 55.796875 60.140625 
C 50.90625 66.390625 44.90625 70 37.203125 70 
C 20.09375 70 4.59375 54.796875 4.59375 34.046875 
C 4.59375 13.40625 19.796875 -2 37.40625 -2 
C 45.5 -2 53.40625 0.890625 56.5 6.640625 
C 58.203125 2.515625 61 -0.3125 61.5 -0.3125 
C 62 -0.3125 62.09375 -0.203125 62.09375 1.59375 
z
" id="CMR17-71"/>
     </defs>
     <g transform="translate(70.142728 60.878767)scale(0.1 -0.1)">
      <use transform="scale(0.996264)" xlink:href="#CMR17-69"/>
      <use transform="translate(62.586301 0)scale(0.996264)" xlink:href="#CMR17-120"/>
      <use transform="translate(110.879216 0)scale(0.996264)" xlink:href="#CMR17-116"/>
      <use transform="translate(146.159984 0)scale(0.996264)" xlink:href="#CMR17-101"/>
      <use transform="translate(186.645645 0)scale(0.996264)" xlink:href="#CMR17-110"/>
      <use transform="translate(237.541014 0)scale(0.996264)" xlink:href="#CMR17-115"/>
      <use transform="translate(273.342352 0)scale(0.996264)" xlink:href="#CMR17-126"/>
      <use transform="translate(273.342352 0)scale(0.996264)" xlink:href="#CMR17-97"/>
      <use transform="translate(319.032829 0)scale(0.996264)" xlink:href="#CMR17-111"/>
      <use transform="translate(394.799273 0)scale(0.996264)" xlink:href="#CMR17-100"/>
      <use transform="translate(445.694642 0)scale(0.996264)" xlink:href="#CMR17-101"/>
      <use transform="translate(516.256269 0)scale(0.996264)" xlink:href="#CMR17-71"/>
      <use transform="translate(588.611615 0)scale(0.996264)" xlink:href="#CMR17-114"/>
      <use transform="translate(623.892383 0)scale(0.996264)" xlink:href="#CMR17-101"/>
      <use transform="translate(664.378043 0)scale(0.996264)" xlink:href="#CMR17-101"/>
      <use transform="translate(704.863704 0)scale(0.996264)" xlink:href="#CMR17-110"/>
     </g>
    </g>
    <g id="line2d_51">
     <path d="M 42.142728 71.315945 
L 62.142728 71.315945 
" style="fill:none;stroke:#2ca02c;stroke-linecap:square;stroke-width:0.6;"/>
    </g>
    <g id="line2d_52"/>
    <g id="text_26">
     <!-- Extensão de Almansi -->
     <defs>
      <path d="M 36.296875 69.390625 
C 35.796875 70.6875 35.59375 71 34.59375 71 
C 33.59375 71 33.40625 70.6875 32.90625 69.390625 
L 11.703125 9.0625 
C 9.796875 3.6875 5.796875 2.59375 2.296875 2.59375 
L 2.296875 0 
C 4.09375 0.1875 8.09375 0.1875 10 0.1875 
C 12.5 0.1875 16.5 0.1875 18.90625 0 
L 18.90625 2.59375 
C 14.203125 2.796875 13.5 5.96875 13.5 7.171875 
C 13.5 8.0625 13.703125 8.5625 13.90625 9.15625 
L 19.203125 24 
L 45.40625 24 
L 51.40625 7.078125 
C 51.90625 5.875 51.90625 5.671875 51.90625 5.28125 
C 51.90625 2.59375 47.59375 2.59375 45.703125 2.59375 
L 45.703125 0 
C 48.59375 0.1875 53.796875 0.1875 56.90625 0.1875 
C 59.5 0.1875 64.5 0.1875 66.90625 0 
L 66.90625 2.59375 
C 61.59375 2.59375 59.796875 2.59375 58.5 6.28125 
z
M 32.296875 61.3125 
L 44.5 26.59375 
L 20.09375 26.59375 
z
" id="CMR17-65"/>
      <path d="M 15.296875 69 
L 3.40625 67.890625 
L 3.40625 65.296875 
C 9.296875 65.296875 10.203125 64.703125 10.203125 59.921875 
L 10.203125 6.859375 
C 10.203125 3.09375 9.796875 2.59375 3.40625 2.59375 
L 3.40625 0 
C 5.796875 0.1875 10.203125 0.1875 12.703125 0.1875 
C 15.296875 0.1875 19.703125 0.1875 22.09375 0 
L 22.09375 2.59375 
C 15.703125 2.59375 15.296875 2.984375 15.296875 6.859375 
z
" id="CMR17-108"/>
      <path d="M 67.59375 30.53125 
C 67.59375 35.5625 66.703125 44 54.796875 44 
C 48 44 43.296875 39.375 41.5 33.953125 
L 41.40625 33.953125 
C 40.203125 42.1875 34.296875 44 28.703125 44 
C 20.796875 44 16.703125 37.875 15.203125 33.84375 
L 15.09375 33.84375 
L 15.09375 44 
L 3.296875 42.890625 
L 3.296875 40.28125 
C 9.203125 40.28125 10.09375 39.6875 10.09375 34.859375 
L 10.09375 6.921875 
C 10.09375 3.09375 9.703125 2.59375 3.296875 2.59375 
L 3.296875 0 
C 5.703125 0.1875 10.09375 0.1875 12.703125 0.1875 
C 15.296875 0.1875 19.796875 0.1875 22.203125 0 
L 22.203125 2.59375 
C 15.796875 2.59375 15.40625 3 15.40625 6.921875 
L 15.40625 26.21875 
C 15.40625 35.453125 21 42.390625 28 42.390625 
C 35.40625 42.390625 36.203125 35.765625 36.203125 30.9375 
L 36.203125 6.921875 
C 36.203125 3.09375 35.796875 2.59375 29.40625 2.59375 
L 29.40625 0 
C 31.796875 0.1875 36.203125 0.1875 38.796875 0.1875 
C 41.40625 0.1875 45.90625 0.1875 48.296875 0 
L 48.296875 2.59375 
C 41.90625 2.59375 41.5 3 41.5 6.921875 
L 41.5 26.21875 
C 41.5 35.453125 47.09375 42.390625 54.09375 42.390625 
C 61.5 42.390625 62.296875 35.765625 62.296875 30.9375 
L 62.296875 6.921875 
C 62.296875 3.09375 61.90625 2.59375 55.5 2.59375 
L 55.5 0 
C 57.90625 0.1875 62.296875 0.1875 64.90625 0.1875 
C 67.5 0.1875 72 0.1875 74.40625 0 
L 74.40625 2.59375 
C 68 2.59375 67.59375 3 67.59375 6.921875 
z
" id="CMR17-109"/>
     </defs>
     <g transform="translate(70.142728 74.815945)scale(0.1 -0.1)">
      <use transform="scale(0.996264)" xlink:href="#CMR17-69"/>
      <use transform="translate(62.586301 0)scale(0.996264)" xlink:href="#CMR17-120"/>
      <use transform="translate(110.879216 0)scale(0.996264)" xlink:href="#CMR17-116"/>
      <use transform="translate(146.159984 0)scale(0.996264)" xlink:href="#CMR17-101"/>
      <use transform="translate(186.645645 0)scale(0.996264)" xlink:href="#CMR17-110"/>
      <use transform="translate(237.541014 0)scale(0.996264)" xlink:href="#CMR17-115"/>
      <use transform="translate(273.342352 0)scale(0.996264)" xlink:href="#CMR17-126"/>
      <use transform="translate(273.342352 0)scale(0.996264)" xlink:href="#CMR17-97"/>
      <use transform="translate(319.032829 0)scale(0.996264)" xlink:href="#CMR17-111"/>
      <use transform="translate(394.799273 0)scale(0.996264)" xlink:href="#CMR17-100"/>
      <use transform="translate(445.694642 0)scale(0.996264)" xlink:href="#CMR17-101"/>
      <use transform="translate(516.256269 0)scale(0.996264)" xlink:href="#CMR17-65"/>
      <use transform="translate(585.328699 0)scale(0.996264)" xlink:href="#CMR17-108"/>
      <use transform="translate(610.199758 0)scale(0.996264)" xlink:href="#CMR17-109"/>
      <use transform="translate(687.119347 0)scale(0.996264)" xlink:href="#CMR17-97"/>
      <use transform="translate(732.809824 0)scale(0.996264)" xlink:href="#CMR17-110"/>
      <use transform="translate(783.705194 0)scale(0.996264)" xlink:href="#CMR17-115"/>
      <use transform="translate(819.506532 0)scale(0.996264)" xlink:href="#CMR17-105"/>
     </g>
    </g>
    <g id="line2d_53">
     <path d="M 42.142728 85.253123 
L 62.142728 85.253123 
" style="fill:none;stroke:#d62728;stroke-linecap:square;stroke-width:0.6;"/>
    </g>
    <g id="line2d_54"/>
    <g id="text_27">
     <!-- Extensão logarítmica -->
     <defs>
      <path d="M 34.703125 64.953125 
C 35.90625 66.03125 36.203125 66.234375 36.203125 67.3125 
C 36.203125 68.796875 34.90625 70 33.5 70 
C 32.296875 70 31.90625 69.484375 30.90625 68.296875 
L 19.59375 54.1875 
C 18.90625 53.296875 18.90625 53.1875 18.90625 53.09375 
C 18.90625 52.984375 19.796875 52.09375 20 51.890625 
z
" id="CMR17-19"/>
      <path d="M 15.296875 44 
L 3.796875 42.890625 
L 3.796875 40.296875 
C 9.40625 40.296875 10.203125 39.6875 10.203125 34.859375 
L 10.203125 6.921875 
C 10.203125 3.09375 9.796875 2.59375 3.40625 2.59375 
L 3.40625 0 
C 5.796875 0.1875 10.09375 0.1875 12.59375 0.1875 
C 15 0.1875 19.09375 0.1875 21.40625 0 
L 21.40625 2.59375 
C 15.5 2.59375 15.296875 3.203125 15.296875 6.8125 
z
" id="CMR17-16"/>
      <path d="M 34.90625 35 
C 33 35 30.203125 35 30.203125 31.484375 
C 30.203125 28.6875 32.5 27.890625 33.796875 27.890625 
C 34.5 27.890625 37.40625 28.1875 37.40625 31.6875 
C 37.40625 38.6875 30.59375 44 22.90625 44 
C 12.296875 44 3.296875 34.390625 3.296875 21.546875 
C 3.296875 8.140625 12.703125 -1 22.90625 -1 
C 35.296875 -1 38.40625 10.5625 38.40625 11.671875 
C 38.40625 12.078125 38.296875 12.375 37.59375 12.375 
C 36.90625 12.375 36.796875 12.28125 36.40625 10.96875 
C 33.796875 2.8125 28.09375 0.796875 23.796875 0.796875 
C 17.40625 0.796875 9.703125 6.734375 9.703125 21.640625 
C 9.703125 36.84375 17.09375 42.1875 23 42.1875 
C 26.90625 42.1875 32.703125 40.34375 34.90625 35 
z
" id="CMR17-99"/>
     </defs>
     <g transform="translate(70.142728 88.753123)scale(0.1 -0.1)">
      <use transform="scale(0.996264)" xlink:href="#CMR17-69"/>
      <use transform="translate(62.586301 0)scale(0.996264)" xlink:href="#CMR17-120"/>
      <use transform="translate(110.879216 0)scale(0.996264)" xlink:href="#CMR17-116"/>
      <use transform="translate(146.159984 0)scale(0.996264)" xlink:href="#CMR17-101"/>
      <use transform="translate(186.645645 0)scale(0.996264)" xlink:href="#CMR17-110"/>
      <use transform="translate(237.541014 0)scale(0.996264)" xlink:href="#CMR17-115"/>
      <use transform="translate(273.342352 0)scale(0.996264)" xlink:href="#CMR17-126"/>
      <use transform="translate(273.342352 0)scale(0.996264)" xlink:href="#CMR17-97"/>
      <use transform="translate(319.032829 0)scale(0.996264)" xlink:href="#CMR17-111"/>
      <use transform="translate(394.799273 0)scale(0.996264)" xlink:href="#CMR17-108"/>
      <use transform="translate(419.670331 0)scale(0.996264)" xlink:href="#CMR17-111"/>
      <use transform="translate(465.360808 0)scale(0.996264)" xlink:href="#CMR17-103"/>
      <use transform="translate(511.051285 0)scale(0.996264)" xlink:href="#CMR17-97"/>
      <use transform="translate(556.741762 0)scale(0.996264)" xlink:href="#CMR17-114"/>
      <use transform="translate(581.612821 0)scale(0.996264)" xlink:href="#CMR17-19"/>
      <use transform="translate(592.02253 0)scale(0.996264)" xlink:href="#CMR17-16"/>
      <use transform="translate(616.893589 0)scale(0.996264)" xlink:href="#CMR17-116"/>
      <use transform="translate(652.174357 0)scale(0.996264)" xlink:href="#CMR17-109"/>
      <use transform="translate(729.093946 0)scale(0.996264)" xlink:href="#CMR17-105"/>
      <use transform="translate(753.965005 0)scale(0.996264)" xlink:href="#CMR17-99"/>
      <use transform="translate(794.450665 0)scale(0.996264)" xlink:href="#CMR17-97"/>
     </g>
    </g>
   </g>
  </g>
 </g>
 <defs>
  <clipPath id="pbe827c73d4">
   <rect height="266.112" width="259.776" x="33.142728" y="30.941588"/>
  </clipPath>
 </defs>
</svg>
